<svg width="24" height="25" viewBox="0 0 24 25" fill="none" xmlns="http://www.w3.org/2000/svg">
<path d="M7.28922 5.83229C10.4238 5.55981 13.5762 5.5598 16.7108 5.83229L18.2211 5.96357C19.2264 6.05097 20.0875 6.65064 20.5337 7.50842C20.5907 7.61815 20.5479 7.75101 20.4428 7.81612L14.1768 11.6951C12.833 12.527 11.1384 12.5444 9.77776 11.7404L3.46993 8.01301C3.36802 7.95279 3.32124 7.82883 3.36717 7.71973C3.77533 6.75016 4.69296 6.05798 5.77899 5.96358L7.28922 5.83229Z" fill="#FADE56"/>
<path d="M3.36206 9.69153C3.20609 9.59937 3.00709 9.69855 2.98891 9.87879C2.73518 12.3945 2.79659 14.9339 3.17314 17.438C3.37166 18.7581 4.44907 19.7702 5.77901 19.8858L7.28924 20.0171C10.4239 20.2896 13.5763 20.2896 16.7109 20.0171L18.2212 19.8858C19.5511 19.7702 20.6285 18.7581 20.827 17.438C21.2146 14.861 21.2683 12.2464 20.9883 9.65893C20.9686 9.47741 20.7663 9.38006 20.611 9.47616L14.9665 12.9705C13.1483 14.096 10.8557 14.1196 9.01468 13.0318L3.36206 9.69153Z" fill="#FADE56"/>
</svg>
