<svg width="21" height="21" viewBox="0 0 21 21" fill="none" xmlns="http://www.w3.org/2000/svg">
<g clip-path="url(#clip0_256_1255)">
<path d="M5.56479 18.868C4.63445 17.8108 3.70415 16.7114 3.1121 15.4004C2.52009 14.0049 2.35092 12.398 2.64695 10.8757C2.94298 9.35334 3.61955 7.91555 4.59219 6.68923C4.50763 7.74643 4.88821 8.84589 5.60709 9.64936C5.1842 7.61956 5.86081 5.4206 7.214 3.81369C8.56718 2.20678 10.4279 1.14954 12.3731 0.430664C11.4005 1.44556 11.2736 3.05247 11.6542 4.4057C12.0348 5.75889 12.8382 6.94295 13.5571 8.16927C14.276 9.3956 14.9526 10.6642 14.9949 12.0597C15.3755 11.3408 15.7984 10.6219 16.0521 9.81849C16.3058 9.01501 16.4327 8.16927 16.2213 7.3658C16.9824 8.29614 17.4053 9.22643 17.6168 10.4105C17.8282 11.5946 17.7859 12.8209 17.6591 14.0049C17.4899 15.3159 17.1516 16.6691 16.4327 17.7685C15.587 19.0794 14.2338 20.0097 12.7537 20.5172C10.1318 20.9824 7.55229 20.6018 5.56479 18.868Z" fill="#E1452A"/>
<path d="M8.77853 20.4325C12.2461 21.7858 15.6714 17.6839 13.7684 14.5123C13.7684 14.47 13.7261 14.47 13.7261 14.4277C13.8953 16.1615 13.4724 17.4301 12.6689 18.1491C13.0918 17.1342 12.7958 15.9501 12.2883 14.9352C11.7809 13.9626 11.062 13.0746 10.5123 12.1442C9.96252 11.1716 9.53967 10.0721 9.79339 8.97266C8.77849 9.73383 8.05962 10.8756 7.76359 12.1019C7.46757 13.3282 7.63673 14.6815 8.18648 15.8232C7.55217 15.3581 7.08702 14.5969 7.04472 13.7934C6.36811 14.5969 5.94526 15.6541 5.98752 16.7113C5.98756 18.3605 7.29844 19.8405 8.77853 20.4325Z" fill="#FFD15C"/>
</g>
<defs>
<clipPath id="clip0_256_1255">
<rect width="20.269" height="20.269" fill="white" transform="translate(0 0.430664)"/>
</clipPath>
</defs>
</svg>
