<svg width="24" height="25" viewBox="0 0 24 25" fill="none" xmlns="http://www.w3.org/2000/svg">
<path d="M16 7.9248C16 7.37252 16.4477 6.9248 17 6.9248C17.5523 6.9248 18 7.37252 18 7.9248C18 8.47708 17.5523 8.9248 17 8.9248C16.4477 8.9248 16 8.47708 16 7.9248Z" fill="#FADE56"/>
<path fill-rule="evenodd" clip-rule="evenodd" d="M12 8.1748C9.37665 8.1748 7.25 10.3015 7.25 12.9248C7.25 15.5482 9.37665 17.6748 12 17.6748C14.6234 17.6748 16.75 15.5482 16.75 12.9248C16.75 10.3015 14.6234 8.1748 12 8.1748ZM8.75 12.9248C8.75 11.1299 10.2051 9.6748 12 9.6748C13.7949 9.6748 15.25 11.1299 15.25 12.9248C15.25 14.7197 13.7949 16.1748 12 16.1748C10.2051 16.1748 8.75 14.7197 8.75 12.9248Z" fill="#FADE56"/>
<path fill-rule="evenodd" clip-rule="evenodd" d="M17.2584 3.75738C13.7918 3.36993 10.2084 3.36993 6.74183 3.75738C4.72977 3.98225 3.10544 5.56726 2.86889 7.58979C2.45435 11.1341 2.45435 14.7147 2.86889 18.259C3.10544 20.2815 4.72977 21.8665 6.74183 22.0914C10.2084 22.4788 13.7918 22.4788 17.2584 22.0914C19.2704 21.8665 20.8947 20.2815 21.1313 18.259C21.5458 14.7147 21.5458 11.1341 21.1313 7.58979C20.8947 5.56726 19.2704 3.98225 17.2584 3.75738ZM6.90844 5.24809C10.2643 4.87303 13.7359 4.87303 17.0917 5.24809C18.4219 5.39675 19.4873 6.44637 19.6415 7.76404C20.0425 11.1926 20.0425 14.6562 19.6415 18.0847C19.4873 19.4024 18.4219 20.452 17.0917 20.6007C13.7359 20.9757 10.2643 20.9757 6.90844 20.6007C5.57833 20.452 4.51284 19.4024 4.35873 18.0847C3.95773 14.6562 3.95773 11.1926 4.35873 7.76404C4.51284 6.44637 5.57833 5.39675 6.90844 5.24809Z" fill="#FADE56"/>
</svg>
