<svg width="26" height="26" viewBox="0 0 26 26" fill="none" xmlns="http://www.w3.org/2000/svg">
<path fill-rule="evenodd" clip-rule="evenodd" d="M3.52081 10.8656C3.52081 7.94008 6.08738 5.6875 9.09998 5.6875C10.6529 5.6875 12.0193 6.41565 13 7.35782C13.9806 6.41565 15.347 5.6875 16.9 5.6875C19.9126 5.6875 22.4791 7.94008 22.4791 10.8656C22.4791 12.8697 21.6245 14.6319 20.4405 16.1216C19.2585 17.6088 17.7125 18.8709 16.2321 19.8965C15.6666 20.2882 15.0946 20.6495 14.5711 20.9161C14.0795 21.1665 13.5142 21.3958 13 21.3958C12.4857 21.3958 11.9204 21.1665 11.4288 20.9161C10.9054 20.6495 10.3333 20.2882 9.76789 19.8965C8.28753 18.8709 6.74142 17.6088 5.55945 16.1216C4.37543 14.6319 3.52081 12.8697 3.52081 10.8656ZM9.09998 7.3125C6.84746 7.3125 5.14581 8.96903 5.14581 10.8656C5.14581 12.3861 5.79125 13.8017 6.83158 15.1106C7.87395 16.422 9.27648 17.5791 10.6933 18.5608C11.2294 18.9321 11.7343 19.2481 12.1664 19.4682C12.6301 19.7043 12.8989 19.7708 13 19.7708C13.1011 19.7708 13.3698 19.7043 13.8336 19.4682C14.2656 19.2481 14.7706 18.9321 15.3067 18.5608C16.7235 17.5791 18.126 16.422 19.1684 15.1106C20.2087 13.8017 20.8541 12.3861 20.8541 10.8656C20.8541 8.96903 19.1524 7.3125 16.9 7.3125C15.6063 7.3125 14.3983 8.08537 13.6441 9.06633C13.4903 9.26636 13.2523 9.38357 13 9.38357C12.7477 9.38357 12.5097 9.26636 12.3558 9.06633C11.6016 8.08537 10.3936 7.3125 9.09998 7.3125Z" fill="#252B2F"/>
</svg>
