<svg width="24" height="25" viewBox="0 0 24 25" fill="none" xmlns="http://www.w3.org/2000/svg">
<path d="M5.00017 10.7856C6.91657 14.9594 10.3266 18.2779 14.5661 20.0769L15.2457 20.3797C16.8006 21.0725 18.6283 20.5462 19.5766 19.1327L20.4647 17.809C20.7535 17.3786 20.6656 16.7989 20.2622 16.4735L17.2503 14.0437C16.808 13.6868 16.1575 13.77 15.819 14.2266L14.8873 15.4839C12.4965 14.3045 10.5554 12.3635 9.37607 9.97273L10.6333 9.04101C11.09 8.70259 11.1731 8.05207 10.8162 7.60969L8.38635 4.59775C8.061 4.19447 7.4815 4.1065 7.05113 4.39507L5.71829 5.28877C4.29595 6.24247 3.77257 8.08532 4.4813 9.64427L4.99939 10.7839L5.00017 10.7856Z" fill="#FADE56"/>
</svg>
